<?xml version="1.0" encoding="UTF-8" standalone="no"?>
<svg
   xmlns:dc="http://purl.org/dc/elements/1.1/"
   xmlns:cc="http://creativecommons.org/ns#"
   xmlns:rdf="http://www.w3.org/1999/02/22-rdf-syntax-ns#"
   xmlns:svg="http://www.w3.org/2000/svg"
   xmlns="http://www.w3.org/2000/svg"
   xmlns:sodipodi="http://sodipodi.sourceforge.net/DTD/sodipodi-0.dtd"
   xmlns:inkscape="http://www.inkscape.org/namespaces/inkscape"
   version="1.1"
   id="svg2"
   xml:space="preserve"
   width="800"
   height="666.66669"
   viewBox="0 0 800 666.66669"
   sodipodi:docname="illu.svg"
   inkscape:version="1.0.2 (e86c870879, 2021-01-15)"><metadata
     id="metadata8"><rdf:RDF><cc:Work
         rdf:about=""><dc:format>image/svg+xml</dc:format><dc:type
           rdf:resource="http://purl.org/dc/dcmitype/StillImage" /><dc:title></dc:title></cc:Work></rdf:RDF></metadata><defs
     id="defs6"><clipPath
       clipPathUnits="userSpaceOnUse"
       id="clipPath20"><path
         d="M 0,500 H 600 V 0 H 0 Z"
         id="path18" /></clipPath><clipPath
       clipPathUnits="userSpaceOnUse"
       id="clipPath504"><path
         d="M 0,500 H 600 V 0 H 0 Z"
         id="path502" /></clipPath></defs><sodipodi:namedview
     pagecolor="#ffffff"
     bordercolor="#666666"
     borderopacity="1"
     objecttolerance="10"
     gridtolerance="10"
     guidetolerance="10"
     inkscape:pageopacity="0"
     inkscape:pageshadow="2"
     inkscape:window-width="1920"
     inkscape:window-height="1011"
     id="namedview4"
     showgrid="false"
     inkscape:zoom="1.2765"
     inkscape:cx="329.76914"
     inkscape:cy="280.00509"
     inkscape:window-x="0"
     inkscape:window-y="32"
     inkscape:window-maximized="1"
     inkscape:current-layer="g10" /><g
     id="g10"
     inkscape:groupmode="layer"
     inkscape:label="5378852"
     transform="matrix(1.3333333,0,0,-1.3333333,0,666.66667)"><g
       id="g14"><g
         id="g16"
         clip-path="url(#clipPath20)"><g
           id="g22"
           transform="translate(91.1187,65.0547)"><path
             d="M 0,0 H 63.687 254.78 416.225 c 2.436,0 25.346,-2.124 26.627,0 6.044,10.018 10.682,21.098 12.686,30.066 2.456,10.994 1.4,23.178 -4.324,32.723 -0.986,1.647 -2.112,3.214 -3.382,4.683 -9.08,10.5 -23.528,14.257 -35.244,21.702 -18.298,11.629 -28.757,31.277 -40.219,48.961 -13.281,20.489 -31.997,31.32 -55.475,38.234 -60.045,17.684 -138.959,7.086 -190.745,-28.385 C 107.436,135.166 90.991,118.504 70.027,109.842 52.071,102.423 32.201,101.473 13.239,97.244 -5.724,93.015 -25.382,84.146 -34.296,66.884 -41.487,52.956 -39.751,36.562 -33.861,22.517 -26.29,4.465 -19.278,0 0,0"
             style="fill:#f3fcfc;fill-opacity:1;fill-rule:nonzero;stroke:none"
             id="path24" /></g><g
           id="g26"
           transform="translate(118.6182,200.7832)"><path
             d="m 0,0 c -0.181,-4.618 3.138,-8.847 7.271,-10.914 4.133,-2.067 8.932,-2.332 13.547,-2.096 5.082,0.261 10.136,1.082 15.039,2.444 9.766,2.711 20.222,8.945 20.484,20.31 C 56.51,17.055 51.922,21.946 45.093,23.841 31.4,27.638 0.649,16.533 0,0"
             style="fill:#f3fcfc;fill-opacity:1;fill-rule:nonzero;stroke:none"
             id="path28" /></g><g
           id="g30"
           transform="translate(508.2939,164.3779)"><path
             d="m 0,0 c 2.957,-1.815 6.203,-3.303 9.656,-3.643 3.453,-0.34 7.151,0.596 9.596,3.058 3.431,3.453 3.658,9.156 1.8,13.654 -1.859,4.498 -5.41,8.052 -8.952,11.392 -5.801,5.471 -27.493,21.421 -31.917,6.101 C -22.936,19.766 -7.91,4.854 0,0"
             style="fill:#f3fcfc;fill-opacity:1;fill-rule:nonzero;stroke:none"
             id="path32" /></g><g
           id="g34"
           transform="translate(518.499,129.3643)"><path
             d="m 0,0 c 0,0 -27.505,-18.996 -19.194,-64.31 h 26.12 c 0,0 8.706,35.024 -6.926,64.31"
             style="fill:#61a98a;fill-opacity:1;fill-rule:nonzero;stroke:none"
             id="path36" /></g><g
           id="g38"
           transform="translate(509.2803,70.8428)"><path
             d="m 0,0 c -0.106,0 -0.216,0.019 -0.322,0.056 -0.488,0.177 -0.74,0.717 -0.562,1.206 6.351,17.452 6.915,42.32 6.92,42.569 0.01,0.519 0.483,0.963 0.958,0.921 C 7.513,44.741 7.926,44.313 7.916,43.794 7.911,43.542 7.341,18.368 0.884,0.618 0.744,0.237 0.384,0 0,0"
             style="fill:#269288;fill-opacity:1;fill-rule:nonzero;stroke:none"
             id="path40" /></g><g
           id="g42"
           transform="translate(455.2471,159.2441)"><path
             d="M 0,0 C 0,0 -1.724,-51.514 37.072,-94.189 H 57.117 C 57.117,-94.189 41.384,-17.243 0,0"
             style="fill:#83bd89;fill-opacity:1;fill-rule:nonzero;stroke:none"
             id="path44" /></g><g
           id="g46"
           transform="translate(499.3701,70.8428)"><path
             d="m 0,0 c -0.388,0 -0.751,0.242 -0.887,0.63 -11.178,31.981 -38.536,74.698 -38.811,75.126 -0.281,0.435 -0.155,1.018 0.282,1.299 0.436,0.282 1.017,0.155 1.299,-0.284 C -37.841,76.343 -10.364,33.439 0.888,1.249 1.06,0.76 0.801,0.224 0.311,0.053 0.209,0.017 0.104,0 0,0"
             style="fill:#4f9e8a;fill-opacity:1;fill-rule:nonzero;stroke:none"
             id="path48" /></g><g
           id="g50"
           transform="translate(77.874,162.0137)"><path
             d="M 0,0 C -4.354,-46.698 12.268,-96.959 12.268,-96.959 H 38.967 C 39.941,-42.741 0,0 0,0"
             style="fill:#61a98a;fill-opacity:1;fill-rule:nonzero;stroke:none"
             id="path52" /></g><g
           id="g54"
           transform="translate(104.6714,72.3643)"><path
             d="m 0,0 c -0.441,0 -0.835,0.312 -0.922,0.761 -6.242,32.318 -20.908,69.044 -21.056,69.411 -0.193,0.48 0.041,1.029 0.522,1.223 0.477,0.189 1.029,-0.041 1.223,-0.524 C -20.085,70.503 -5.353,33.616 0.924,1.118 1.022,0.607 0.689,0.114 0.179,0.017 0.119,0.005 0.059,0 0,0"
             style="fill:#269288;fill-opacity:1;fill-rule:nonzero;stroke:none"
             id="path56" /></g><g
           id="g58"
           transform="translate(98.6045,65.0547)"><path
             d="m 0,0 h 14.333 c 0,0 25.13,18.753 31.211,56.064 C 45.544,56.064 8.273,52.392 0,0"
             style="fill:#83bd89;fill-opacity:1;fill-rule:nonzero;stroke:none"
             id="path60" /></g><g
           id="g62"
           transform="translate(107.3105,70.3164)"><path
             d="M 0,0 C -0.141,0 -0.283,0.032 -0.417,0.098 -0.882,0.329 -1.072,0.894 -0.841,1.358 9.661,22.497 28.44,41 28.629,41.185 29,41.546 29.595,41.541 29.958,41.17 30.321,40.8 30.314,40.205 29.943,39.841 29.757,39.659 11.201,21.369 0.843,0.521 0.678,0.19 0.346,0 0,0"
             style="fill:#4f9e8a;fill-opacity:1;fill-rule:nonzero;stroke:none"
             id="path64" /></g><g
           id="g66"
           transform="translate(472.7891,85.3037)"><path
             d="m 0,0 c 0,0 -0.065,-14.445 -0.462,-14.445 -0.395,0 -6.727,2.375 -6.727,2.375 V 0.989 Z"
             style="fill:#ff9793;fill-opacity:1;fill-rule:nonzero;stroke:none"
             id="path68" /></g><g
           id="g70"
           transform="translate(429.5674,93.0156)"><path
             d="m 0,0 c 0,0 -4.553,-13.709 -4.929,-13.586 -0.377,0.123 -5.657,4.349 -5.657,4.349 l 4.061,12.413 z"
             style="fill:#ff9793;fill-opacity:1;fill-rule:nonzero;stroke:none"
             id="path72" /></g><g
           id="g74"
           transform="translate(397.8203,82.0938)"><path
             d="m 0,0 27.146,-8.878 c 0,0 1.469,1.948 1.147,3.511 -0.321,1.562 0.71,3.654 0.31,4.341 -0.401,0.685 -0.216,1.25 -1.884,1.24 C 25.05,0.205 24.931,0.052 23.522,1.476 22.114,2.899 21.779,3.148 20.487,2.808 19.196,2.466 17.559,0.643 12.821,1.22 8.083,1.798 2.989,2.563 1.927,2.285 0.864,2.008 0,0 0,0"
             style="fill:#64c3ee;fill-opacity:1;fill-rule:nonzero;stroke:none"
             id="path76" /></g><g
           id="g78"
           transform="translate(397.8203,82.0938)"><path
             d="m 0,0 27.146,-8.878 c 0,0 0.628,0.847 0.972,1.868 L 1.171,1.804 C 0.483,1.121 0,0 0,0"
             style="fill:#459fdf;fill-opacity:1;fill-rule:nonzero;stroke:none"
             id="path80" /></g><g
           id="g82"
           transform="translate(446.0098,65.0547)"><path
             d="m 0,0 h 28.561 c 0,0 0.791,2.309 0,3.693 C 27.769,5.078 28.099,7.387 27.505,7.915 26.911,8.442 26.911,9.036 25.328,8.509 23.745,7.98 23.68,7.798 21.898,8.714 20.117,9.63 19.722,9.762 18.601,9.036 17.479,8.311 16.49,6.068 11.807,5.145 7.124,4.221 2.045,3.363 1.121,2.77 0.198,2.177 0,0 0,0"
             style="fill:#64c3ee;fill-opacity:1;fill-rule:nonzero;stroke:none"
             id="path84" /></g><g
           id="g86"
           transform="translate(446.0098,65.0547)"><path
             d="m 0,0 h 28.561 c 0,0 0.335,1 0.343,2.077 H 0.553 C 0.111,1.215 0,0 0,0"
             style="fill:#459fdf;fill-opacity:1;fill-rule:nonzero;stroke:none"
             id="path88" /></g><g
           id="g90"
           transform="translate(391.7256,275.5293)"><path
             d="M 0,0 C -1.648,2.638 -2.968,3.76 -3.396,3.628 -3.825,3.496 -4.122,3.265 -4.122,3.265 c 0,0 -5.903,4.65 -6.794,4.815 -0.891,0.165 -1.121,-0.429 -1.088,-0.726 0.032,-0.296 4.551,-4.452 4.551,-4.452 0,0 -1.229,-0.544 -0.998,-1.402 -0.577,-0.256 -0.813,-0.687 -0.67,-1.302 0.038,-0.164 0.105,-0.335 0.051,-0.493 -0.034,-0.096 -0.108,-0.171 -0.169,-0.251 -0.32,-0.423 -0.286,-1.036 -0.048,-1.509 0.239,-0.473 0.648,-0.836 1.06,-1.169 0.795,-0.641 1.654,-1.229 2.621,-1.559 0.759,-0.259 1.564,-0.352 2.342,-0.549 0.951,-0.24 1.858,-0.633 2.729,-1.086 0.47,-0.246 0.963,-0.516 1.493,-0.487 l 1.613,4.202 c 0,0 -0.922,0.065 -2.571,2.703"
             style="fill:#ff9793;fill-opacity:1;fill-rule:nonzero;stroke:none"
             id="path92" /></g><g
           id="g94"
           transform="translate(386.9629,273.2393)"><path
             d="M 0,0 C 0.225,0.123 0.359,0.387 0.345,0.678 0.337,0.8 0.31,0.923 0.264,1.042 0.513,1.02 0.759,1.052 0.945,1.226 1.129,1.396 1.206,1.678 1.146,1.962 1.095,2.204 0.958,2.411 0.831,2.582 0.159,3.48 -0.81,4.127 -1.662,4.696 l -0.932,0.618 -0.374,0.134 c 0.169,-0.156 0.278,-0.256 0.278,-0.256 0,0 -0.081,-0.035 -0.195,-0.102 l 0.152,-0.053 0.897,-0.6 C -1.004,3.879 -0.061,3.249 0.58,2.394 0.687,2.25 0.801,2.081 0.841,1.896 0.877,1.723 0.834,1.551 0.732,1.457 0.576,1.311 0.306,1.34 0.032,1.395 -0.135,1.505 -2.531,3.088 -3.625,3.933 L -3.701,3.966 C -3.699,3.908 -3.705,3.852 -3.688,3.791 -3.75,3.763 -3.793,3.725 -3.847,3.693 L -3.784,3.667 C -2.716,2.836 -0.325,1.255 -0.143,1.135 -0.04,0.986 0.022,0.822 0.031,0.66 0.039,0.521 -0.014,0.349 -0.149,0.276 -0.264,0.215 -0.422,0.231 -0.559,0.251 -0.707,0.275 -0.878,0.31 -1.018,0.388 L -1.218,0.5 -1.22,0.488 C -1.794,0.773 -3.569,1.664 -4.209,2.116 L -4.3,2.191 C -4.293,2.125 -4.286,2.058 -4.308,1.995 -4.325,1.945 -4.363,1.907 -4.396,1.865 -3.692,1.369 -1.788,0.419 -1.287,0.171 -1.38,-0.083 -1.666,-0.28 -1.946,-0.265 -2.13,-0.247 -2.313,-0.146 -2.477,-0.056 L -3.339,0.417 C -3.416,0.46 -3.512,0.432 -3.552,0.356 -3.594,0.28 -3.566,0.185 -3.491,0.143 l 0.864,-0.474 c 0.179,-0.099 0.403,-0.222 0.651,-0.244 0.027,-0.004 0.055,-0.005 0.082,-0.005 0.391,0 0.764,0.261 0.905,0.613 0.13,-0.047 0.261,-0.072 0.382,-0.091 C -0.419,-0.089 -0.196,-0.106 0,0"
             style="fill:#dc7588;fill-opacity:1;fill-rule:nonzero;stroke:none"
             id="path96" /></g><g
           id="g98"
           transform="translate(477.7363,218.6064)"><path
             d="m 0,0 c 0,0 2.242,-8.112 0.923,-24.536 -1.319,-16.424 -2.902,-44.523 -3.495,-64.706 -0.594,-20.184 -1.583,-47.095 -1.583,-47.095 0,0 -3.166,-1.978 -9.498,1.386 0,0 0.593,54.613 0,65.497 -0.594,10.883 -2.969,41.158 -2.969,41.158 0,0 -3.34,-8.675 -9.996,-22.966 -3.597,-7.721 -7.868,-41.937 -21.664,-78.149 0,0 -5.145,0.198 -9.103,3.561 0,0 9.697,41.752 13.456,60.156 3.76,18.402 6.53,37.794 10.289,47.687 3.76,9.895 5.618,18.996 5.618,18.996 z"
             style="fill:#5a3f62;fill-opacity:1;fill-rule:nonzero;stroke:none"
             id="path100" /></g><g
           id="g102"
           transform="translate(461.3779,208.7129)"><path
             d="m 0,0 c 0,0 -7.292,-34.826 -7.528,-35.412 4.832,10.698 7.264,17.01 7.264,17.01 0,0 0.018,-0.219 0.047,-0.593 L 0,-17.809 c 0,0 1.022,10.057 0,17.809"
             style="fill:#412c46;fill-opacity:1;fill-rule:nonzero;stroke:none"
             id="path104" /></g><g
           id="g106"
           transform="translate(455.6309,287.7256)"><path
             d="M 0,0 C 0.208,1.7 0.701,3.404 1.721,4.781 2.739,6.157 4.342,7.167 6.055,7.187 6.57,7.193 7.084,7.112 7.6,7.094 c 1.762,-0.062 3.5,0.615 5.258,0.475 1.978,-0.157 3.829,-1.428 4.685,-3.216 0.315,-0.658 0.505,-1.377 0.894,-1.995 0.535,-0.85 1.397,-1.433 2.084,-2.167 1.296,-1.388 1.923,-3.286 2.182,-5.169 0.259,-1.882 0.185,-3.793 0.28,-5.69 0.031,-0.603 0.079,-1.214 0.287,-1.781 0.269,-0.742 0.79,-1.362 1.173,-2.052 1.189,-2.136 0.972,-4.846 -0.056,-7.064 -0.096,-0.207 -0.21,-0.423 -0.409,-0.533 -0.153,-0.084 -0.334,-0.093 -0.509,-0.099 -2.118,-0.071 -4.245,0.092 -6.328,0.485 -1.289,0.242 -2.578,0.579 -3.727,1.209 -1.135,0.623 -2.101,1.511 -2.999,2.443 -1.329,1.377 -2.554,2.888 -3.364,4.622 -0.675,1.444 -1.05,3.013 -1.716,4.46 -0.445,0.968 -1.051,1.917 -1.886,2.595 -0.63,0.511 -1.358,0.53 -2.01,0.934 C -0.181,-4.444 -0.2,-1.639 0,0"
             style="fill:#5a3f62;fill-opacity:1;fill-rule:nonzero;stroke:none"
             id="path108" /></g><g
           id="g110"
           transform="translate(468.2119,271.2417)"><path
             d="m 0,0 c 0,0 11.371,-4.203 13.613,-5.729 2.243,-1.526 5.014,-22.369 6.729,-25.271 1.715,-2.903 23.75,-26.837 26.124,-28.685 l -5.145,-3.693 c 0,0 -16.627,14.437 -21.508,18.921 -4.88,4.486 -9.761,11.214 -9.761,11.214 0,0 0.395,-7.391 0.924,-11.61 0.527,-4.22 1.692,-8.837 1.692,-8.837 0,0 -6.046,-1.848 -14.356,-1.451 -8.312,0.395 -19.8,1.451 -19.8,1.451 0,0 2.166,10.742 1.77,15.405 -0.395,4.663 -1.231,14.804 -0.571,17.442 0,0 -4.881,-6.735 -8.179,-6.994 -3.299,-0.261 -43.401,20.846 -48.018,24.539 0,0 1.715,3.166 2.77,5.277 0,0 12.532,-6.464 18.072,-9.103 5.541,-2.638 23.877,-9.102 24.406,-9.365 0.527,-0.264 8.31,11.872 11.213,13.059 2.902,1.188 10.685,3.1 10.685,3.1 z"
             style="fill:#64c3ee;fill-opacity:1;fill-rule:nonzero;stroke:none"
             id="path112" /></g><g
           id="g114"
           transform="translate(480.6387,234.9111)"><path
             d="m 0,0 c -0.218,0.272 -2.375,3.088 -2.375,3.088 0,0 0,7.65 -1.583,17.281 0,0 2.658,-6.428 3.166,-15.434 z"
             style="fill:#33a2cf;fill-opacity:1;fill-rule:nonzero;stroke:none"
             id="path116" /></g><g
           id="g118"
           transform="translate(447.9229,250.3989)"><path
             d="M 0,0 C -0.275,-1.101 -0.288,-3.512 -0.184,-6.282 L 2.374,4.881 Z"
             style="fill:#33a2cf;fill-opacity:1;fill-rule:nonzero;stroke:none"
             id="path120" /></g><g
           id="g122"
           transform="translate(514.1455,211.1748)"><path
             d="M 0,0 C 0,0 0.829,-0.904 2.165,-1.349 3.5,-1.794 5.133,-2.536 5.183,-2.784 5.231,-3.031 4.638,-3.493 3.5,-3.312 c 0,0 6.58,-4.32 7.124,-4.962 0.544,-0.644 0.05,-1.039 -0.989,-0.594 -1.039,0.445 -5.244,2.819 -5.244,2.819 0,0 5.639,-4.6 5.936,-5.095 0.297,-0.495 0.05,-1.088 -0.939,-0.495 -0.991,0.594 -5.393,3.661 -5.393,3.661 0,0 3.216,-3.514 3.166,-3.909 -0.05,-0.395 -0.692,-0.397 -1.187,0 -0.495,0.397 -4.254,3.81 -4.254,3.81 0,0 1.583,-2.177 1.434,-2.474 -0.148,-0.297 -0.89,-0.049 -1.534,0.545 -0.642,0.593 -1.483,1.484 -2.176,2.819 -0.693,1.336 -0.346,1.188 -1.434,2.276 -1.089,1.089 -1.836,2.164 -1.836,2.164 z"
             style="fill:#ff9793;fill-opacity:1;fill-rule:nonzero;stroke:none"
             id="path124" /></g><g
           id="g126"
           transform="translate(467.7764,275.6611)"><path
             d="m 0,0 c 0,0 -0.118,-3.958 0.436,-4.419 0.553,-0.462 -1.557,-5.923 -3.866,-7.084 0,0 -4.09,1.082 -5.474,6.754 0,0 0.923,0.264 0.989,0.791 0.065,0.528 0,4.684 0,4.684 z"
             style="fill:#f78889;fill-opacity:1;fill-rule:nonzero;stroke:none"
             id="path128" /></g><g
           id="g130"
           transform="translate(457.2227,283.2466)"><path
             d="m 0,0 c 0,0 0.857,-9.894 5.606,-10.751 4.749,-0.858 7.455,7.123 7.52,7.387 0.066,0.264 1.715,0.264 1.715,2.111 0,1.847 -0.989,2.968 -1.451,2.836 -0.461,-0.132 -0.528,-3.166 -1.188,-3.1 -0.659,0.066 -0.923,3.826 -1.318,3.892 C 10.487,2.44 9.894,0.989 7.915,1.517 5.937,2.044 5.937,2.968 4.485,3.034 3.034,3.1 2.507,2.77 1.649,3.892 1.627,3.113 1.335,2.402 1.114,1.654 0.894,0.907 0.779,0 0,0"
             style="fill:#ff9793;fill-opacity:1;fill-rule:nonzero;stroke:none"
             id="path132" /></g><g
           id="g134"
           transform="translate(348.708,198.9912)"><path
             d="M 0,0 H 98.016 L 74.798,65.167 h -98.016 z"
             style="fill:#6e7189;fill-opacity:1;fill-rule:nonzero;stroke:none"
             id="path136" /></g><g
           id="g138"
           transform="translate(346.6562,198.9912)"><path
             d="M 0,0 H 96.594 L 74.284,62.621 H -22.31 Z"
             style="fill:#9aa1c2;fill-opacity:1;fill-rule:nonzero;stroke:none"
             id="path140" /></g><g
           id="g142"
           transform="translate(363.6143,209.3721)"><path
             d="M 0,0 H 52.493 L 40.369,34.032 h -52.494 z"
             style="fill:#a7afd1;fill-opacity:1;fill-rule:nonzero;stroke:none"
             id="path144" /></g><g
           id="g146"
           transform="translate(324.3467,261.6118)"><path
             d="M 0,0 1.144,2.546 H 99.159 L 96.594,0 Z"
             style="fill:#8b90ae;fill-opacity:1;fill-rule:nonzero;stroke:none"
             id="path148" /></g><g
           id="g150"
           transform="translate(376.0811,232.5176)"><path
             d="m 0,0 -12.181,-62.984 v -98.56 H 0 v 98.56 L 12.181,0 Z"
             style="fill:#62709e;fill-opacity:1;fill-rule:nonzero;stroke:none"
             id="path152" /></g><g
           id="g154"
           transform="translate(388.2617,232.5176)"><path
             d="m 0,0 -12.181,-62.984 v -98.56 h 3.958 v 92.326 l 13.072,52.175 z"
             style="fill:#505c82;fill-opacity:1;fill-rule:nonzero;stroke:none"
             id="path156" /></g><path
           d="m 413.693,71.782 h -66.889 v -6.728 h 66.889 z"
           style="fill:#9aa1c2;fill-opacity:1;fill-rule:nonzero;stroke:none"
           id="path158" /><path
           d="m 413.693,71.782 h -26.686 v -6.728 h 26.686 z"
           style="fill:#878ca9;fill-opacity:1;fill-rule:nonzero;stroke:none"
           id="path160" /><g
           id="g162"
           transform="translate(376.8447,269.5327)"><path
             d="m 0,0 c 0,-41.24 -33.431,-74.671 -74.671,-74.671 -41.239,0 -74.67,33.431 -74.67,74.671 0,41.239 33.431,74.671 74.67,74.671 C -33.431,74.671 0,41.239 0,0"
             style="fill:#62709e;fill-opacity:1;fill-rule:nonzero;stroke:none"
             id="path164" /></g><g
           id="g166"
           transform="translate(369.2051,269.5327)"><path
             d="m 0,0 c 0,-37.02 -30.011,-67.031 -67.031,-67.031 -37.02,0 -67.031,30.011 -67.031,67.031 0,37.02 30.011,67.03 67.031,67.03 C -30.011,67.03 0,37.02 0,0"
             style="fill:#858db2;fill-opacity:1;fill-rule:nonzero;stroke:none"
             id="path168" /></g><g
           id="g170"
           transform="translate(363.5918,269.5327)"><path
             d="m 0,0 c 0,-33.92 -27.498,-61.417 -61.418,-61.417 -33.919,0 -61.417,27.497 -61.417,61.417 0,33.919 27.498,61.417 61.417,61.417 C -27.498,61.417 0,33.919 0,0"
             style="fill:#9aa1c2;fill-opacity:1;fill-rule:nonzero;stroke:none"
             id="path172" /></g><g
           id="g174"
           transform="translate(344.5264,295.314)"><path
             d="m 0,0 c 0,-2.473 -2.005,-4.479 -4.479,-4.479 -2.473,0 -4.478,2.006 -4.478,4.479 0,2.474 2.005,4.479 4.478,4.479 C -2.005,4.479 0,2.474 0,0"
             style="fill:#b4b8d3;fill-opacity:1;fill-rule:nonzero;stroke:none"
             id="path176" /></g><g
           id="g178"
           transform="translate(269.0493,239.0615)"><path
             d="m 0,0 c 0,-1.073 -0.87,-1.943 -1.943,-1.943 -1.073,0 -1.943,0.87 -1.943,1.943 0,1.073 0.87,1.942 1.943,1.942 C -0.87,1.942 0,1.073 0,0"
             style="fill:#b4b8d3;fill-opacity:1;fill-rule:nonzero;stroke:none"
             id="path180" /></g><g
           id="g182"
           transform="translate(355.4121,265.2114)"><path
             d="m 0,0 c 0,-1.073 -0.869,-1.943 -1.942,-1.943 -1.074,0 -1.944,0.87 -1.944,1.943 0,1.073 0.87,1.943 1.944,1.943 C -0.869,1.943 0,1.073 0,0"
             style="fill:#b4b8d3;fill-opacity:1;fill-rule:nonzero;stroke:none"
             id="path184" /></g><g
           id="g186"
           transform="translate(323.0205,318.145)"><path
             d="m 0,0 c 0,-1.073 -0.87,-1.943 -1.943,-1.943 -1.074,0 -1.943,0.87 -1.943,1.943 0,1.073 0.869,1.943 1.943,1.943 C -0.87,1.943 0,1.073 0,0"
             style="fill:#b4b8d3;fill-opacity:1;fill-rule:nonzero;stroke:none"
             id="path188" /></g><g
           id="g190"
           transform="translate(260.1187,292.0234)"><path
             d="m 0,0 c 0,-1.409 -1.143,-2.552 -2.552,-2.552 -1.408,0 -2.551,1.143 -2.551,2.552 0,1.409 1.143,2.551 2.551,2.551 C -1.143,2.551 0,1.409 0,0"
             style="fill:#b4b8d3;fill-opacity:1;fill-rule:nonzero;stroke:none"
             id="path192" /></g><g
           id="g194"
           transform="translate(327.4336,226.3887)"><path
             d="m 0,0 c 0,-1.073 -0.87,-1.943 -1.943,-1.943 -1.073,0 -1.943,0.87 -1.943,1.943 0,1.072 0.87,1.942 1.943,1.942 C -0.87,1.942 0,1.072 0,0"
             style="fill:#b4b8d3;fill-opacity:1;fill-rule:nonzero;stroke:none"
             id="path196" /></g><g
           id="g198"
           transform="translate(349.9346,246.1445)"><path
             d="m 0,0 c 0,-2.729 -2.214,-4.943 -4.943,-4.943 -2.731,0 -4.944,2.214 -4.944,4.943 0,2.73 2.213,4.943 4.944,4.943 C -2.214,4.943 0,2.73 0,0"
             style="fill:#b4b8d3;fill-opacity:1;fill-rule:nonzero;stroke:none"
             id="path200" /></g><g
           id="g202"
           transform="translate(284.7021,224.1777)"><path
             d="m 0,0 c 0,-2.73 -2.213,-4.943 -4.943,-4.943 -2.73,0 -4.943,2.213 -4.943,4.943 0,2.729 2.213,4.942 4.943,4.942 C -2.213,4.942 0,2.729 0,0"
             style="fill:#b4b8d3;fill-opacity:1;fill-rule:nonzero;stroke:none"
             id="path204" /></g><g
           id="g206"
           transform="translate(277.1855,308.0801)"><path
             d="m 0,0 c 0,-2.73 -2.213,-4.943 -4.943,-4.943 -2.73,0 -4.943,2.213 -4.943,4.943 0,2.73 2.213,4.943 4.943,4.943 C -2.213,4.943 0,2.73 0,0"
             style="fill:#b4b8d3;fill-opacity:1;fill-rule:nonzero;stroke:none"
             id="path208" /></g><g
           id="g210"
           transform="translate(302.1787,323.8774)"><path
             d="m 0,0 v -78.738 l 33.912,23.335 z"
             style="fill:#d2d7e7;fill-opacity:1;fill-rule:nonzero;stroke:none"
             id="path212" /></g><g
           id="g214"
           transform="translate(302.1787,281.585)"><path
             d="M 0,0 V -36.445 L 33.912,-13.11 Z"
             style="fill:#cccfe0;fill-opacity:1;fill-rule:nonzero;stroke:none"
             id="path216" /></g><g
           id="g218"
           transform="translate(302.1787,323.8774)"><path
             d="m 0,0 v -78.738 l -33.912,23.335 z"
             style="fill:#e0e7f1;fill-opacity:1;fill-rule:nonzero;stroke:none"
             id="path220" /></g><g
           id="g222"
           transform="translate(302.1787,281.585)"><path
             d="M 0,0 V -36.445 L -33.912,-13.11 Z"
             style="fill:#d2d7e7;fill-opacity:1;fill-rule:nonzero;stroke:none"
             id="path224" /></g><g
           id="g226"
           transform="translate(302.1787,214.9619)"><path
             d="M 0,0 35.191,48.199 0,23.19 Z"
             style="fill:#d2d7e7;fill-opacity:1;fill-rule:nonzero;stroke:none"
             id="path228" /></g><g
           id="g230"
           transform="translate(302.2979,214.9619)"><path
             d="M 0,0 -35.191,48.199 0,23.19 Z"
             style="fill:#e0e7f1;fill-opacity:1;fill-rule:nonzero;stroke:none"
             id="path232" /></g><g
           id="g234"
           transform="translate(243.8457,212.0771)"><path
             d="m 0,0 h -100.521 l 23.217,65.167 H 23.218 Z"
             style="fill:#3f4a6a;fill-opacity:1;fill-rule:nonzero;stroke:none"
             id="path236" /></g><g
           id="g238"
           transform="translate(185.1221,219.2344)"><path
             d="m 0,0 h -30.869 l 18.776,52.699 h 30.868 z"
             style="fill:#505f88;fill-opacity:1;fill-rule:nonzero;stroke:none"
             id="path240" /></g><g
           id="g242"
           transform="translate(162.5317,229.8857)"><path
             d="M 0,0 -1.995,-5.436 H 20.338 L 22.333,0 Z"
             style="fill:#6072a1;fill-opacity:1;fill-rule:nonzero;stroke:none"
             id="path244" /></g><g
           id="g246"
           transform="translate(164.5259,235.6475)"><path
             d="M 0,0 -1.165,-3.21 H 21.168 L 22.333,0 Z"
             style="fill:#6072a1;fill-opacity:1;fill-rule:nonzero;stroke:none"
             id="path248" /></g><g
           id="g250"
           transform="translate(190.8042,247.1611)"><path
             d="M 0,0 6.229,17.487 H -16.104 L -22.333,0 Z"
             style="fill:#6072a1;fill-opacity:1;fill-rule:nonzero;stroke:none"
             id="path252" /></g><g
           id="g254"
           transform="translate(242.1309,228.7451)"><path
             d="m 0,0 h -14.931 l 4.918,13.805 H 4.918 Z"
             style="fill:#717ea4;fill-opacity:1;fill-rule:nonzero;stroke:none"
             id="path256" /></g><path
           d="M 143.324,206.536 H 243.78 v 5.541 H 143.324 Z"
           style="fill:#858db2;fill-opacity:1;fill-rule:nonzero;stroke:none"
           id="path258" /><g
           id="g260"
           transform="translate(267.0635,277.2441)"><path
             d="m 0,0 -23.284,-65.167 v -5.891 l 24.39,68.265 z"
             style="fill:#767d9f;fill-opacity:1;fill-rule:nonzero;stroke:none"
             id="path262" /></g><g
           id="g264"
           transform="translate(228.1392,264.3164)"><path
             d="M 0,0 1.858,5.216 H -18.453 L -20.311,0 Z"
             style="fill:#64c3ee;fill-opacity:1;fill-rule:nonzero;stroke:none"
             id="path266" /></g><g
           id="g268"
           transform="translate(224.8408,254.9502)"><path
             d="m 0,0 1.858,5.216 h -20.31 L -20.311,0 Z"
             style="fill:#ffd75b;fill-opacity:1;fill-rule:nonzero;stroke:none"
             id="path270" /></g><g
           id="g272"
           transform="translate(221.543,245.584)"><path
             d="m 0,0 1.858,5.216 h -20.31 L -20.311,0 Z"
             style="fill:#64c3ee;fill-opacity:1;fill-rule:nonzero;stroke:none"
             id="path274" /></g><g
           id="g276"
           transform="translate(240.7695,219.2344)"><path
             d="M 0,0 1.858,5.216 H -45.359 L -47.217,0 Z"
             style="fill:#ff5676;fill-opacity:1;fill-rule:nonzero;stroke:none"
             id="path278" /></g><g
           id="g280"
           transform="translate(201.6831,229.8857)"><path
             d="M 0,0 H 2.719 L 4.637,6.392 H 7.699 L 4.929,12.783 -1.129,6.392 H 1.918 Z"
             style="fill:#e4e7f6;fill-opacity:1;fill-rule:nonzero;stroke:none"
             id="path282" /></g><g
           id="g284"
           transform="translate(221.8252,242.0391)"><path
             d="M 0,0 H -2.719 L -4.358,-6.392 H -7.42 l 2.77,-6.391 6.059,6.391 h -3.048 z"
             style="fill:#68de86;fill-opacity:1;fill-rule:nonzero;stroke:none"
             id="path286" /></g><path
           d="M 204.968,71.419 H 189.1 v 135.117 h 15.868 z"
           style="fill:#62709e;fill-opacity:1;fill-rule:nonzero;stroke:none"
           id="path288" /><g
           id="g290"
           transform="translate(204.9678,71.4189)"><path
             d="M 0,0 H 9.437 L 4.415,135.117 H 0 Z"
             style="fill:#505c82;fill-opacity:1;fill-rule:nonzero;stroke:none"
             id="path292" /></g><path
           d="m 237.125,71.782 h -66.889 v -6.728 h 66.889 z"
           style="fill:#878ca9;fill-opacity:1;fill-rule:nonzero;stroke:none"
           id="path294" /><path
           d="m 219.758,71.782 h -49.522 v -6.728 h 49.522 z"
           style="fill:#9aa1c2;fill-opacity:1;fill-rule:nonzero;stroke:none"
           id="path296" /><g
           id="g298"
           transform="translate(121.2612,88.9971)"><path
             d="m 0,0 -0.692,-18.303 h -8.114 l 0.495,21.37 z"
             style="fill:#ff9793;fill-opacity:1;fill-rule:nonzero;stroke:none"
             id="path300" /></g><g
           id="g302"
           transform="translate(169.0249,95.1602)"><path
             d="M 0,0 5.051,-17.606 -2.657,-20.137 -8.853,0.321 Z"
             style="fill:#ff9793;fill-opacity:1;fill-rule:nonzero;stroke:none"
             id="path304" /></g><g
           id="g306"
           transform="translate(165.5049,68.8037)"><path
             d="m 0,0 32.118,10.545 c 0,0 0.476,3.231 -1.075,3.27 C 29.493,13.856 16.512,10.582 11.996,11.626 7.481,12.669 7.122,13.43 4.571,11.164 2.02,8.899 0.265,10.898 -0.985,10.024 -2.235,9.149 -1.811,8.19 -1.454,6.771 -1.098,5.351 -1.666,3.736 0,0"
             style="fill:#64c3ee;fill-opacity:1;fill-rule:nonzero;stroke:none"
             id="path308" /></g><g
           id="g310"
           transform="translate(164.7676,70.7832)"><path
             d="M 0,0 C 0.18,-0.592 0.405,-1.233 0.737,-1.979 L 32.855,8.565 c 0,0 0.183,1.25 -0.051,2.206 z"
             style="fill:#459fdf;fill-opacity:1;fill-rule:nonzero;stroke:none"
             id="path312" /></g><g
           id="g314"
           transform="translate(110.4771,212.0771)"><path
             d="m 0,0 c 0,0 -1.979,-5.541 0,-24.537 1.979,-18.996 3.76,-27.109 2.968,-34.035 -0.791,-6.925 -2.666,-56.46 -1.827,-67.74 0,0 4.202,-2.968 11.127,0 0,0 0.99,30.737 3.958,49.14 2.968,18.402 3.562,29.088 3.166,34.43 -0.396,5.343 -0.791,12.664 -0.791,12.664 0,0 9.299,-15.434 11.872,-22.162 2.572,-6.728 20.579,-72.819 20.579,-72.819 0,0 5.541,-1.187 9.696,2.573 0,0 -13.852,70.84 -16.028,76.974 -2.177,6.134 -18.403,49.074 -18.403,49.074 z"
             style="fill:#5a3f62;fill-opacity:1;fill-rule:nonzero;stroke:none"
             id="path316" /></g><g
           id="g318"
           transform="translate(101.9146,238.1963)"><path
             d="m 0,0 c 0,0 0.944,-12.564 1.538,-13.95 0.593,-1.385 4.254,-3.76 4.254,-3.76 0,0 1.484,18.106 1.088,18.205 C 6.485,0.594 1.34,1.781 1.34,1.781 Z"
             style="fill:#ff9793;fill-opacity:1;fill-rule:nonzero;stroke:none"
             id="path320" /></g><g
           id="g322"
           transform="translate(144.1772,247.1611)"><path
             d="m 0,0 5.083,-8.232 c 0,0 4.947,4.907 14.94,11.338 9.993,6.431 11.477,8.014 11.972,9.399 0.494,1.385 1.781,2.671 2.276,2.869 0.494,0.198 1.286,0 1.286,0 0,0 5.012,5.837 5.837,5.871 0.824,0.032 0.792,-0.561 0.758,-0.858 -0.032,-0.297 -4.188,-4.881 -4.188,-4.881 0,0 1.121,0.198 1.253,-0.231 0.132,-0.428 0.033,-0.692 0.495,-0.824 0.462,-0.132 1.056,-0.462 0.891,-0.89 -0.165,-0.429 0.428,-0.594 0.593,-1.089 C 41.361,11.978 41.031,11.153 39.547,10.13 38.063,9.108 34.93,7.294 32.226,4.59 29.521,1.886 6.106,-18.034 3.863,-18.825 c -2.242,-0.792 -4.946,1.186 -5.738,2.242 -0.792,1.056 -6.926,13.192 -6.926,13.192 z"
             style="fill:#ff9793;fill-opacity:1;fill-rule:nonzero;stroke:none"
             id="path324" /></g><g
           id="g326"
           transform="translate(144.1772,247.1611)"><path
             d="m 0,0 -8.801,-3.391 c 0,0 1.455,-2.879 3.039,-5.953 3.311,2.224 5.868,5.866 6.905,7.493 z"
             style="fill:#f78889;fill-opacity:1;fill-rule:nonzero;stroke:none"
             id="path328" /></g><g
           id="g330"
           transform="translate(146.7871,248.9805)"><path
             d="m 0,0 c -3.166,2.672 -6.728,8.608 -7.618,10.191 -0.89,1.583 -2.375,3.166 -5.41,4.551 -3.036,1.385 -7.501,1.979 -7.501,1.979 h -8.361 c 0,0 -7.915,0 -13.653,-4.452 -3.182,-2.469 -4.27,-22.593 -4.27,-22.593 2.474,-0.989 7.238,-0.46 7.238,-0.46 0,0 -0.363,-10.751 -0.099,-18.403 0.153,-4.421 -0.264,-9.366 -0.264,-9.366 0,0 2.737,-0.725 6.695,-0.33 3.957,0.397 9.894,-0.494 17.413,0.792 7.519,1.286 8.806,4.651 8.806,4.651 0,0 -2.474,9.695 -2.474,15.533 0,5.837 -0.561,9.761 -0.561,9.761 C -3.232,-5.969 0,0 0,0"
             style="fill:#64c3ee;fill-opacity:1;fill-rule:nonzero;stroke:none"
             id="path332" /></g><g
           id="g334"
           transform="translate(133.0293,286.1206)"><path
             d="M 0,0 C 0.227,-1.242 0.269,-2.517 0.123,-3.771 0.001,-4.82 -0.25,-5.889 -0.018,-6.919 c 0.105,-0.465 0.307,-0.906 0.383,-1.377 0.077,-0.47 0.001,-1.007 -0.358,-1.32 -0.206,-0.179 -0.481,-0.266 -0.676,-0.457 -0.324,-0.317 -0.341,-0.823 -0.339,-1.276 0.003,-0.803 0.001,-1.623 -0.248,-2.387 -0.248,-0.764 -0.787,-1.478 -1.551,-1.73 -0.334,-0.11 -0.691,-0.127 -1.042,-0.154 -0.623,-0.046 -1.243,-0.125 -1.858,-0.235 -0.351,-0.063 -0.712,-0.141 -1.001,-0.351 -0.289,-0.209 -0.487,-0.584 -0.386,-0.926 l 0.323,-3.287 c 0,0 -1.782,-2.127 -8.806,-0.594 0,0 0.346,5.936 -0.396,7.421 -0.742,1.484 3.216,12.565 3.216,12.565 l 8.953,3.809 z"
             style="fill:#ff9793;fill-opacity:1;fill-rule:nonzero;stroke:none"
             id="path336" /></g><g
           id="g338"
           transform="translate(120.3691,294.4805)"><path
             d="m 0,0 c 2.153,-0.175 3.167,1.991 6.207,0.741 0.708,-0.291 1.224,-0.912 1.829,-1.382 1.232,-0.955 2.734,-1.56 3.818,-2.68 1.381,-1.425 1.893,-3.632 1.279,-5.519 -0.085,-0.262 -0.202,-0.533 -0.431,-0.686 -0.308,-0.206 -0.715,-0.138 -1.082,-0.184 -1.248,-0.16 -2.138,-1.673 -3.383,-1.491 -0.403,0.059 -0.76,0.298 -1.161,0.371 -0.891,0.163 -1.631,-0.641 -1.936,-1.493 -0.488,-1.368 1.182,-3.562 1.837,-4.188 0,0 0.495,-1.286 0.198,-1.682 -0.297,-0.395 -0.268,0 -0.48,-1.187 -0.213,-1.187 0.331,-2.671 -0.905,-3.265 -1.237,-0.594 -1.831,0 -2.82,-0.594 -0.99,-0.593 -2.424,0 -3.958,0 -1.533,0 -2.869,0.495 -3.809,0.941 -0.94,0.444 -2.177,1.632 -2.226,2.671 -0.049,1.039 -0.692,1.484 -1.039,2.919 -0.346,1.434 -0.495,3.413 -0.346,4.105 0.148,0.693 -0.742,5.046 0.346,6.778 1.088,1.731 0.99,1.731 1.286,3.017 C -6.479,-1.521 -4.108,0.334 0,0"
             style="fill:#5a3f62;fill-opacity:1;fill-rule:nonzero;stroke:none"
             id="path340" /></g><g
           id="g342"
           transform="translate(129.0776,181.999)"><path
             d="m 0,0 c 0,0 -1.88,4.552 -7.619,10.389 0,0 5.333,-12.014 8.206,-20.138 C 0.27,-4.998 0,0 0,0"
             style="fill:#412c46;fill-opacity:1;fill-rule:nonzero;stroke:none"
             id="path344" /></g><g
           id="g346"
           transform="translate(109.6958,65.0547)"><path
             d="m 0,0 h 33.804 c 0,0 1.461,2.921 0,3.442 -1.461,0.523 -14.815,1.461 -18.78,3.861 -3.965,2.4 -4.069,3.234 -7.199,1.878 C 4.695,7.825 3.651,10.271 2.191,9.831 0.73,9.39 0.834,8.347 0.73,6.886 0.626,5.425 -0.417,4.068 0,0"
             style="fill:#64c3ee;fill-opacity:1;fill-rule:nonzero;stroke:none"
             id="path348" /></g><g
           id="g350"
           transform="translate(109.6123,67.165)"><path
             d="m 0,0 c -0.014,-0.618 0,-1.298 0.083,-2.11 h 33.805 c 0,0 0.564,1.13 0.639,2.11 z"
             style="fill:#459fdf;fill-opacity:1;fill-rule:nonzero;stroke:none"
             id="path352" /></g><g
           id="g354"
           transform="translate(136.7285,240.835)"><path
             d="M 0,0 C 0.584,0.187 1.133,0.408 1.666,0.645 0.934,4.16 -0.594,10.619 -0.594,10.619 -0.198,6.53 0,0 0,0"
             style="fill:#33a2cf;fill-opacity:1;fill-rule:nonzero;stroke:none"
             id="path356" /></g><g
           id="g358"
           transform="translate(106.1235,245.3203)"><path
             d="m 0,0 c -0.349,-0.977 -0.748,-4.653 -1.299,-7.26 1.352,0.023 2.387,0.136 2.387,0.136 0,0 -0.197,3.76 0,6.332 0.198,2.572 0,4.155 0,4.155 C 1.088,3.363 0.495,1.385 0,0"
             style="fill:#33a2cf;fill-opacity:1;fill-rule:nonzero;stroke:none"
             id="path360" /></g><path
           d="M 259.191,65.055 H 235.71 v 16.499 h 23.481 z"
           style="fill:#3c4564;fill-opacity:1;fill-rule:nonzero;stroke:none"
           id="path362" /><path
           d="m 262.481,65.055 h 6.386 v 70.972 h -6.386 z"
           style="fill:#3c4564;fill-opacity:1;fill-rule:nonzero;stroke:none"
           id="path364" /><path
           d="m 262.481,65.055 h -31.125 v 70.972 h 31.125 z"
           style="fill:#505c82;fill-opacity:1;fill-rule:nonzero;stroke:none"
           id="path366" /><path
           d="m 245.867,90.515 h -10.686 v 41.686 h 10.686 z"
           style="fill:#323954;fill-opacity:1;fill-rule:nonzero;stroke:none"
           id="path368" /><path
           d="m 259.851,128.243 h -11.609 v 3.957 h 11.609 z"
           style="fill:#9aa1c2;fill-opacity:1;fill-rule:nonzero;stroke:none"
           id="path370" /><path
           d="m 259.851,121.119 h -11.609 v 3.958 h 11.609 z"
           style="fill:#9aa1c2;fill-opacity:1;fill-rule:nonzero;stroke:none"
           id="path372" /><path
           d="m 259.851,113.996 h -11.609 v 3.957 h 11.609 z"
           style="fill:#9aa1c2;fill-opacity:1;fill-rule:nonzero;stroke:none"
           id="path374" /><path
           d="m 259.851,106.872 h -11.609 v 3.958 h 11.609 z"
           style="fill:#9aa1c2;fill-opacity:1;fill-rule:nonzero;stroke:none"
           id="path376" /><path
           d="m 244.548,128.573 h -8.047 v 0.791 h 8.047 z"
           style="fill:#505c82;fill-opacity:1;fill-rule:nonzero;stroke:none"
           id="path378" /><path
           d="m 244.548,123.099 h -8.047 v 0.791 h 8.047 z"
           style="fill:#505c82;fill-opacity:1;fill-rule:nonzero;stroke:none"
           id="path380" /><path
           d="m 244.548,117.624 h -8.047 v 0.791 h 8.047 z"
           style="fill:#505c82;fill-opacity:1;fill-rule:nonzero;stroke:none"
           id="path382" /><path
           d="m 244.548,112.149 h -8.047 v 0.791 h 8.047 z"
           style="fill:#505c82;fill-opacity:1;fill-rule:nonzero;stroke:none"
           id="path384" /><path
           d="m 244.548,106.675 h -8.047 v 0.791 h 8.047 z"
           style="fill:#505c82;fill-opacity:1;fill-rule:nonzero;stroke:none"
           id="path386" /><path
           d="m 244.548,101.2 h -8.047 v 0.791 h 8.047 z"
           style="fill:#505c82;fill-opacity:1;fill-rule:nonzero;stroke:none"
           id="path388" /><path
           d="m 244.548,95.726 h -8.047 v 0.791 h 8.047 z"
           style="fill:#505c82;fill-opacity:1;fill-rule:nonzero;stroke:none"
           id="path390" /><path
           d="m 256.948,67.165 h -9.498 v 8.183 h 9.498 z"
           style="fill:#323954;fill-opacity:1;fill-rule:nonzero;stroke:none"
           id="path392" /><path
           d="m 309.396,68.418 h -41.687 v -3.363 h 41.687 z"
           style="fill:#878ca9;fill-opacity:1;fill-rule:nonzero;stroke:none"
           id="path394" /><path
           d="M 272.723,71.782 H 251.88 v -3.364 h 20.843 z"
           style="fill:#9aa1c2;fill-opacity:1;fill-rule:nonzero;stroke:none"
           id="path396" /><path
           d="m 300.175,103.986 h 2.968 V 65.054 h -2.968 z"
           style="fill:#9aa1c2;fill-opacity:1;fill-rule:nonzero;stroke:none"
           id="path398" /><path
           d="m 306.771,101.332 h -9.641 v 2.654 h 9.641 z"
           style="fill:#505c82;fill-opacity:1;fill-rule:nonzero;stroke:none"
           id="path400" /><path
           d="m 352.008,65.055 h -29.267 v 66.733 h 29.267 z"
           style="fill:#505c82;fill-opacity:1;fill-rule:nonzero;stroke:none"
           id="path402" /><path
           d="m 349.658,65.055 h -22.079 v 15.514 h 22.079 z"
           style="fill:#3c4564;fill-opacity:1;fill-rule:nonzero;stroke:none"
           id="path404" /><path
           d="m 352.008,65.055 h 6.005 v 66.733 h -6.005 z"
           style="fill:#3c4564;fill-opacity:1;fill-rule:nonzero;stroke:none"
           id="path406" /><path
           d="m 336.386,88.994 h -10.048 v 39.197 h 10.048 z"
           style="fill:#323954;fill-opacity:1;fill-rule:nonzero;stroke:none"
           id="path408" /><path
           d="m 349.534,124.47 h -10.916 v 3.722 h 10.916 z"
           style="fill:#9aa1c2;fill-opacity:1;fill-rule:nonzero;stroke:none"
           id="path410" /><path
           d="m 349.534,117.771 h -10.916 v 3.722 h 10.916 z"
           style="fill:#9aa1c2;fill-opacity:1;fill-rule:nonzero;stroke:none"
           id="path412" /><path
           d="m 349.534,111.073 h -10.916 v 3.722 h 10.916 z"
           style="fill:#9aa1c2;fill-opacity:1;fill-rule:nonzero;stroke:none"
           id="path414" /><path
           d="m 349.534,104.375 h -10.916 v 3.722 h 10.916 z"
           style="fill:#9aa1c2;fill-opacity:1;fill-rule:nonzero;stroke:none"
           id="path416" /><path
           d="m 335.146,124.78 h -7.566 v 0.744 h 7.566 z"
           style="fill:#505c82;fill-opacity:1;fill-rule:nonzero;stroke:none"
           id="path418" /><path
           d="m 335.146,119.632 h -7.566 v 0.745 h 7.566 z"
           style="fill:#505c82;fill-opacity:1;fill-rule:nonzero;stroke:none"
           id="path420" /><path
           d="m 335.146,114.484 h -7.566 v 0.744 h 7.566 z"
           style="fill:#505c82;fill-opacity:1;fill-rule:nonzero;stroke:none"
           id="path422" /><path
           d="m 335.146,109.337 h -7.566 v 0.744 h 7.566 z"
           style="fill:#505c82;fill-opacity:1;fill-rule:nonzero;stroke:none"
           id="path424" /><path
           d="m 335.146,104.189 h -7.566 v 0.744 h 7.566 z"
           style="fill:#505c82;fill-opacity:1;fill-rule:nonzero;stroke:none"
           id="path426" /><path
           d="m 335.146,99.042 h -7.566 v 0.744 h 7.566 z"
           style="fill:#505c82;fill-opacity:1;fill-rule:nonzero;stroke:none"
           id="path428" /><path
           d="m 335.146,93.894 h -7.566 v 0.744 h 7.566 z"
           style="fill:#505c82;fill-opacity:1;fill-rule:nonzero;stroke:none"
           id="path430" /><path
           d="m 346.249,67.039 h -8.931 v 7.694 h 8.931 z"
           style="fill:#323954;fill-opacity:1;fill-rule:nonzero;stroke:none"
           id="path432" /><path
           d="m 325.629,162.759 h -51.968 v 12.89 h 51.968 z"
           style="fill:#62709e;fill-opacity:1;fill-rule:nonzero;stroke:none"
           id="path434" /><path
           d="m 325.629,162.759 h 4.789 v 12.89 h -4.789 z"
           style="fill:#505c82;fill-opacity:1;fill-rule:nonzero;stroke:none"
           id="path436" /><path
           d="m 314.363,170.584 h -37.851 v 1.33 h 37.851 z"
           style="fill:#434e70;fill-opacity:1;fill-rule:nonzero;stroke:none"
           id="path438" /><path
           d="m 314.363,166.492 h -37.851 v 1.33 h 37.851 z"
           style="fill:#ffffff;fill-opacity:1;fill-rule:nonzero;stroke:none"
           id="path440" /><g
           id="g442"
           transform="translate(322.0488,169.2031)"><path
             d="m 0,0 c 0,-1.13 -0.916,-2.046 -2.046,-2.046 -1.13,0 -2.046,0.916 -2.046,2.046 0,1.13 0.916,2.046 2.046,2.046 C -0.916,2.046 0,1.13 0,0"
             style="fill:#ff6293;fill-opacity:1;fill-rule:nonzero;stroke:none"
             id="path444" /></g><path
           d="m 325.629,143.168 h -51.968 v 12.89 h 51.968 z"
           style="fill:#62709e;fill-opacity:1;fill-rule:nonzero;stroke:none"
           id="path446" /><path
           d="m 325.629,143.168 h 4.789 v 12.89 h -4.789 z"
           style="fill:#505c82;fill-opacity:1;fill-rule:nonzero;stroke:none"
           id="path448" /><path
           d="m 314.363,150.994 h -37.851 v 1.329 h 37.851 z"
           style="fill:#434e70;fill-opacity:1;fill-rule:nonzero;stroke:none"
           id="path450" /><path
           d="m 314.363,146.901 h -37.851 v 1.33 h 37.851 z"
           style="fill:#ffffff;fill-opacity:1;fill-rule:nonzero;stroke:none"
           id="path452" /><g
           id="g454"
           transform="translate(322.0488,149.6123)"><path
             d="m 0,0 c 0,-1.13 -0.916,-2.046 -2.046,-2.046 -1.13,0 -2.046,0.916 -2.046,2.046 0,1.131 0.916,2.047 2.046,2.047 C -0.916,2.047 0,1.131 0,0"
             style="fill:#ffd75b;fill-opacity:1;fill-rule:nonzero;stroke:none"
             id="path456" /></g><path
           d="m 325.629,123.577 h -51.968 v 12.89 h 51.968 z"
           style="fill:#62709e;fill-opacity:1;fill-rule:nonzero;stroke:none"
           id="path458" /><path
           d="m 325.629,123.577 h 4.789 v 12.89 h -4.789 z"
           style="fill:#505c82;fill-opacity:1;fill-rule:nonzero;stroke:none"
           id="path460" /><path
           d="m 314.363,131.403 h -37.851 v 1.33 h 37.851 z"
           style="fill:#434e70;fill-opacity:1;fill-rule:nonzero;stroke:none"
           id="path462" /><path
           d="m 314.363,127.312 h -37.851 v 1.329 h 37.851 z"
           style="fill:#ffffff;fill-opacity:1;fill-rule:nonzero;stroke:none"
           id="path464" /><g
           id="g466"
           transform="translate(322.0488,130.0225)"><path
             d="m 0,0 c 0,-1.13 -0.916,-2.046 -2.046,-2.046 -1.13,0 -2.046,0.916 -2.046,2.046 0,1.13 0.916,2.046 2.046,2.046 C -0.916,2.046 0,1.13 0,0"
             style="fill:#ff6293;fill-opacity:1;fill-rule:nonzero;stroke:none"
             id="path468" /></g><path
           d="m 325.629,103.986 h -51.968 v 12.891 h 51.968 z"
           style="fill:#62709e;fill-opacity:1;fill-rule:nonzero;stroke:none"
           id="path470" /><path
           d="m 325.629,103.986 h 4.789 v 12.891 h -4.789 z"
           style="fill:#505c82;fill-opacity:1;fill-rule:nonzero;stroke:none"
           id="path472" /><path
           d="m 314.363,111.813 h -37.851 v 1.33 h 37.851 z"
           style="fill:#434e70;fill-opacity:1;fill-rule:nonzero;stroke:none"
           id="path474" /><path
           d="m 314.363,107.721 h -37.851 v 1.33 h 37.851 z"
           style="fill:#ffffff;fill-opacity:1;fill-rule:nonzero;stroke:none"
           id="path476" /><g
           id="g478"
           transform="translate(322.0488,110.4316)"><path
             d="m 0,0 c 0,-1.13 -0.916,-2.046 -2.046,-2.046 -1.13,0 -2.046,0.916 -2.046,2.046 0,1.13 0.916,2.046 2.046,2.046 C -0.916,2.046 0,1.13 0,0"
             style="fill:#ffd75b;fill-opacity:1;fill-rule:nonzero;stroke:none"
             id="path480" /></g><path
           d="m 334.148,68.418 h -29.884 v -3.363 h 29.884 z"
           style="fill:#878ca9;fill-opacity:1;fill-rule:nonzero;stroke:none"
           id="path482" /><path
           d="m 344.608,71.782 h -20.843 v -3.364 h 20.843 z"
           style="fill:#9aa1c2;fill-opacity:1;fill-rule:nonzero;stroke:none"
           id="path484" /><g
           id="g486"
           transform="translate(345.8066,369.5879)"><path
             d="m 0,0 h -84.122 c -3.527,0 -6.386,2.859 -6.386,6.386 v 48.57 c 0,3.527 2.859,6.386 6.386,6.386 H 0 c 3.526,0 6.386,-2.859 6.386,-6.386 V 6.386 C 6.386,2.859 3.526,0 0,0"
             style="fill:#4bacef;fill-opacity:1;fill-rule:nonzero;stroke:none"
             id="path488" /></g><g
           id="g490"
           transform="translate(344.8682,375.0952)"><path
             d="m 0,0 h -88.531 c -2.309,0 -4.181,1.872 -4.181,4.181 v 52.98 c 0,2.309 1.872,4.181 4.181,4.181 H 0 c 2.31,0 4.182,-1.872 4.182,-4.181 V 4.181 C 4.182,1.872 2.31,0 0,0"
             style="fill:#64c3ee;fill-opacity:1;fill-rule:nonzero;stroke:none"
             id="path492" /></g></g></g><text
       transform="matrix(1,0,0,-1,269.6372,397.501)"
       style="font-variant:normal;font-weight:800;font-stretch:normal;font-size:28.3043px;font-family:'Montserrat ExtraBold';-inkscape-font-specification:Montserrat-ExtraBold;writing-mode:lr-tb;fill:#ffffff;fill-opacity:1;fill-rule:nonzero;stroke:none"
       id="text496"><tspan
         x="0 24.228481 43.956577"
         y="0"
         sodipodi:role="line"
         id="tspan494">NFT</tspan></text><g
       id="g498"><g
         id="g500"
         clip-path="url(#clipPath504)"><g
           id="g506"
           transform="translate(268.0654,383.1748)"><path
             d="m 0,0 c -0.698,0 -1.369,0.391 -1.693,1.062 l -8.43,17.414 c -1.266,2.615 -1.266,5.616 0,8.232 l 8.43,17.414 c 0.452,0.933 1.578,1.324 2.511,0.873 0.934,-0.453 1.325,-1.577 0.873,-2.511 L -6.738,25.07 c -0.763,-1.575 -0.763,-3.382 0,-4.956 L 1.691,2.699 C 2.143,1.765 1.752,0.641 0.818,0.188 0.554,0.061 0.275,0 0,0"
             style="fill:#ffffff;fill-opacity:1;fill-rule:nonzero;stroke:none"
             id="path508" /></g><g
           id="g510"
           transform="translate(332.1943,383.1748)"><path
             d="m 0,0 c -0.275,0 -0.555,0.061 -0.817,0.188 -0.936,0.453 -1.327,1.577 -0.874,2.511 l 8.428,17.414 c 0.764,1.575 0.764,3.382 0.001,4.956 l -8.429,17.415 c -0.453,0.934 -0.062,2.058 0.874,2.511 0.93,0.45 2.056,0.062 2.51,-0.873 l 8.429,-17.414 c 1.267,-2.616 1.267,-5.617 -10e-4,-8.233 L 1.693,1.062 C 1.368,0.391 0.697,0 0,0"
             style="fill:#ffffff;fill-opacity:1;fill-rule:nonzero;stroke:none"
             id="path512" /></g><g
           id="g514"
           transform="translate(244.6763,331.2319)"><path
             d="m 0,0 h -53.291 c -0.346,0 -0.626,0.28 -0.626,0.626 v 43.731 c 0,0.347 0.28,0.627 0.626,0.627 0.347,0 0.627,-0.28 0.627,-0.627 V 1.253 H 0 c 0.347,0 0.627,-0.28 0.627,-0.627 C 0.627,0.28 0.347,0 0,0"
             style="fill:#505c82;fill-opacity:1;fill-rule:nonzero;stroke:none"
             id="path516" /></g><g
           id="g518"
           transform="translate(230.4004,305.4419)"><path
             d="M 0,0 H -96.003 C -96.35,0 -96.63,0.28 -96.63,0.626 V 22.33 c 0,0.346 0.28,0.626 0.627,0.626 0.346,0 0.627,-0.28 0.627,-0.626 V 1.253 H 0 c 0.346,0 0.626,-0.28 0.626,-0.627 C 0.626,0.28 0.346,0 0,0"
             style="fill:#505c82;fill-opacity:1;fill-rule:nonzero;stroke:none"
             id="path520" /></g><g
           id="g522"
           transform="translate(412.9629,331.2319)"><path
             d="m 0,0 h -53.291 c -0.347,0 -0.627,0.28 -0.627,0.626 0,0.347 0.28,0.627 0.627,0.627 h 52.665 v 43.104 c 0,0.347 0.28,0.627 0.626,0.627 0.347,0 0.627,-0.28 0.627,-0.627 V 0.626 C 0.627,0.28 0.347,0 0,0"
             style="fill:#505c82;fill-opacity:1;fill-rule:nonzero;stroke:none"
             id="path524" /></g><g
           id="g526"
           transform="translate(469.9521,305.4419)"><path
             d="m 0,0 h -96.004 c -0.347,0 -0.627,0.28 -0.627,0.626 0,0.347 0.28,0.627 0.627,0.627 H -0.627 V 22.33 c 0,0.346 0.28,0.626 0.627,0.626 0.346,0 0.626,-0.28 0.626,-0.626 V 0.626 C 0.626,0.28 0.346,0 0,0"
             style="fill:#505c82;fill-opacity:1;fill-rule:nonzero;stroke:none"
             id="path528" /></g><g
           id="g530"
           transform="translate(209.1733,383.6812)"><path
             d="m 0,0 h -35.575 c -2.437,0 -4.412,1.975 -4.412,4.411 v 17.735 c 0,2.436 1.975,4.411 4.412,4.411 H 0 c 2.436,0 4.411,-1.975 4.411,-4.411 V 4.411 C 4.411,1.975 2.436,0 0,0"
             style="fill:#ffffff;fill-opacity:1;fill-rule:nonzero;stroke:none"
             id="path532" /></g><g
           id="g534"
           transform="translate(170.3643,385.1118)"><path
             d="M 0,0 C 0.806,-0.875 1.951,-1.431 3.233,-1.431 H 31.046 L 17.269,14.277 c -1.491,1.7 -4.149,1.659 -5.586,-0.087 z"
             style="fill:#9aa1c2;fill-opacity:1;fill-rule:nonzero;stroke:none"
             id="path536" /></g><g
           id="g538"
           transform="translate(197.1694,388.5161)"><path
             d="m 0,0 4.241,-4.835 h 7.763 c 2.436,0 4.411,1.975 4.411,4.411 V 3.431 L 11.318,7.19 C 9.836,8.284 7.771,8.107 6.497,6.777 Z"
             style="fill:#6e7189;fill-opacity:1;fill-rule:nonzero;stroke:none"
             id="path540" /></g><g
           id="g542"
           transform="translate(152.915,336.5088)"><path
             d="m 0,0 h -37.036 c -2.033,0 -3.681,1.648 -3.681,3.681 v 23.44 c 0,2.033 1.648,3.681 3.681,3.681 H 0 c 2.033,0 3.681,-1.648 3.681,-3.681 V 3.681 C 3.681,1.648 2.033,0 0,0"
             style="fill:#ffffff;fill-opacity:1;fill-rule:nonzero;stroke:none"
             id="path544" /></g><g
           id="g546"
           transform="translate(126.6602,358.5205)"><path
             d="m 0,0 c -0.339,-0.046 -0.592,-0.336 -0.592,-0.678 v -1.447 -11.883 c -0.724,0.372 -1.627,0.603 -2.621,0.603 -2.35,0 -4.255,-1.24 -4.255,-2.77 0,-1.53 1.905,-2.77 4.255,-2.77 2.349,0 4.254,1.24 4.254,2.77 V -2.26 c 0,0.205 0.151,0.378 0.354,0.406 l 14.294,1.949 c 0.246,0.033 0.464,-0.157 0.464,-0.405 v -10.203 c -0.724,0.372 -1.627,0.604 -2.622,0.604 -2.349,0 -4.254,-1.24 -4.254,-2.77 0,-1.53 1.905,-2.771 4.254,-2.771 2.35,0 4.255,1.241 4.255,2.771 v 13.06 1.261 c 0,0.414 -0.367,0.733 -0.777,0.678 z"
             style="fill:#62709e;fill-opacity:1;fill-rule:nonzero;stroke:none"
             id="path548" /></g><g
           id="g550"
           transform="translate(395.1748,383.6812)"><path
             d="m 0,0 h 35.576 c 2.436,0 4.411,1.975 4.411,4.411 v 17.735 c 0,2.436 -1.975,4.411 -4.411,4.411 L 0,26.557 c -2.436,0 -4.411,-1.975 -4.411,-4.411 V 4.411 C -4.411,1.975 -2.436,0 0,0"
             style="fill:#ffffff;fill-opacity:1;fill-rule:nonzero;stroke:none"
             id="path552" /></g><g
           id="g554"
           transform="translate(426.8818,406.3257)"><path
             d="m 0,0 h -19.59 c -0.492,0 -0.89,0.399 -0.89,0.891 0,0.491 0.398,0.89 0.89,0.89 H 0 c 0.492,0 0.891,-0.399 0.891,-0.89 C 0.891,0.399 0.492,0 0,0"
             style="fill:#9aa1c2;fill-opacity:1;fill-rule:nonzero;stroke:none"
             id="path556" /></g><g
           id="g558"
           transform="translate(426.8818,401.478)"><path
             d="m 0,0 h -29.286 c -0.491,0 -0.89,0.398 -0.89,0.89 0,0.492 0.399,0.891 0.89,0.891 L 0,1.781 C 0.492,1.781 0.891,1.382 0.891,0.89 0.891,0.398 0.492,0 0,0"
             style="fill:#8083a9;fill-opacity:1;fill-rule:nonzero;stroke:none"
             id="path560" /></g><g
           id="g562"
           transform="translate(426.8818,396.6299)"><path
             d="m 0,0 h -29.286 c -0.491,0 -0.89,0.398 -0.89,0.891 0,0.491 0.399,0.89 0.89,0.89 L 0,1.781 c 0.492,0 0.891,-0.399 0.891,-0.89 C 0.891,0.398 0.492,0 0,0"
             style="fill:#9aa1c2;fill-opacity:1;fill-rule:nonzero;stroke:none"
             id="path564" /></g><g
           id="g566"
           transform="translate(426.8818,391.7817)"><path
             d="m 0,0 h -29.286 c -0.491,0 -0.89,0.399 -0.89,0.891 0,0.491 0.399,0.89 0.89,0.89 L 0,1.781 c 0.492,0 0.891,-0.399 0.891,-0.89 C 0.891,0.399 0.492,0 0,0"
             style="fill:#8083a9;fill-opacity:1;fill-rule:nonzero;stroke:none"
             id="path568" /></g><g
           id="g570"
           transform="translate(421.7939,386.9341)"><path
             d="m 0,0 h -24.198 c -0.491,0 -0.89,0.398 -0.89,0.89 0,0.492 0.399,0.891 0.89,0.891 L 0,1.781 C 0.492,1.781 0.891,1.382 0.891,0.89 0.891,0.398 0.492,0 0,0"
             style="fill:#9aa1c2;fill-opacity:1;fill-rule:nonzero;stroke:none"
             id="path572" /></g><g
           id="g574"
           transform="translate(451.4336,336.5088)"><path
             d="m 0,0 h 37.035 c 2.033,0 3.682,1.648 3.682,3.681 v 23.44 c 0,2.033 -1.649,3.681 -3.682,3.681 L 0,30.802 c -2.033,0 -3.682,-1.648 -3.682,-3.681 V 3.681 C -3.682,1.648 -2.033,0 0,0"
             style="fill:#ffffff;fill-opacity:1;fill-rule:nonzero;stroke:none"
             id="path576" /></g><g
           id="g578"
           transform="translate(482.3535,351.9097)"><path
             d="m 0,0 c 0,-6.85 -5.553,-12.402 -12.402,-12.402 -6.85,0 -12.402,5.552 -12.402,12.402 0,6.85 5.552,12.402 12.402,12.402 C -5.553,12.402 0,6.85 0,0"
             style="fill:#8b90ae;fill-opacity:1;fill-rule:nonzero;stroke:none"
             id="path580" /></g><g
           id="g582"
           transform="translate(477.8369,351.9097)"><path
             d="M 0,0 -11.901,-7.684 V 7.684 Z"
             style="fill:#c5cff7;fill-opacity:1;fill-rule:nonzero;stroke:none"
             id="path584" /></g><g
           id="g586"
           transform="translate(368.2197,356.689)"><path
             d="M 0,0 V 17.845 L 5.831,15.382 V 14.085 L 4.535,12.357 5.831,11.752 V 10.715 L 4.448,9.441 5.831,8.641 4.708,6.74 v -9.246 z"
             style="fill:#878ba9;fill-opacity:1;fill-rule:nonzero;stroke:none"
             id="path588" /></g><g
           id="g590"
           transform="translate(370.3447,355.479)"><path
             d="M 0,0 H -0.884 V 16.678 L 0,16.246 Z"
             style="fill:#737891;fill-opacity:1;fill-rule:nonzero;stroke:none"
             id="path592" /></g><g
           id="g594"
           transform="translate(377.2246,351.1582)"><path
             d="m 0,0 c 0,-3.556 -2.882,-6.438 -6.437,-6.438 -3.556,0 -6.439,2.882 -6.439,6.438 0,3.556 2.883,6.438 6.439,6.438 C -2.882,6.438 0,3.556 0,0"
             style="fill:#9aa1c2;fill-opacity:1;fill-rule:nonzero;stroke:none"
             id="path596" /></g><g
           id="g598"
           transform="translate(373.8115,351.1582)"><path
             d="m 0,0 c 0,-1.67 -1.354,-3.024 -3.024,-3.024 -1.671,0 -3.025,1.354 -3.025,3.024 0,1.67 1.354,3.024 3.025,3.024 C -1.354,3.024 0,1.67 0,0"
             style="fill:#e0e7f1;fill-opacity:1;fill-rule:nonzero;stroke:none"
             id="path600" /></g><g
           id="g602"
           transform="translate(235.7534,347.1772)"><path
             d="m 0,0 h -9.453 c -1.697,0 -3.073,1.376 -3.073,3.073 V 13.896 H 3.073 V 3.073 C 3.073,1.376 1.697,0 0,0"
             style="fill:#9aa1c2;fill-opacity:1;fill-rule:nonzero;stroke:none"
             id="path604" /></g><g
           id="g606"
           transform="translate(234.2544,354.125)"><path
             d="m 0,0 c 0,-1.782 -1.445,-3.227 -3.228,-3.227 -1.782,0 -3.227,1.445 -3.227,3.227 0,1.783 1.445,3.228 3.227,3.228 C -1.445,3.228 0,1.783 0,0"
             style="fill:#e0e7f1;fill-opacity:1;fill-rule:nonzero;stroke:none"
             id="path608" /></g><g
           id="g610"
           transform="translate(235.7446,365.6997)"><path
             d="m 0,0 v -1.668 h 1.614 v 1.795 c 0,3.415 -2.769,6.184 -6.184,6.184 h -0.296 c -3.415,0 -6.183,-2.769 -6.183,-6.184 v -4.753 h 1.613 V 0 c 0,2.605 2.113,4.718 4.718,4.718 C -2.112,4.718 0,2.605 0,0"
             style="fill:#62709e;fill-opacity:1;fill-rule:nonzero;stroke:none"
             id="path612" /></g><g
           id="g614"
           transform="translate(246.1123,267.1543)"><path
             d="m 0,0 c -1.22,0 -2.469,-0.366 -3.649,-1.084 -1.888,-1.151 -3.362,-3.051 -4.151,-5.35 -1.6,-4.663 0.159,-9.507 3.922,-10.796 1.778,-0.613 3.758,-0.341 5.571,0.764 1.889,1.151 3.363,3.051 4.152,5.35 1.599,4.662 -0.16,9.507 -3.922,10.797 C 1.301,-0.105 0.655,0 0,0 m -1.948,-20.061 c -0.929,0 -1.852,0.153 -2.744,0.458 -5.069,1.741 -7.527,8.012 -5.479,13.982 0.979,2.851 2.831,5.223 5.218,6.677 2.462,1.498 5.193,1.852 7.69,0.996 5.069,-1.74 7.527,-8.011 5.478,-13.981 -0.978,-2.851 -2.831,-5.223 -5.217,-6.677 -1.582,-0.963 -3.275,-1.455 -4.946,-1.455"
             style="fill:#e4e7f6;fill-opacity:1;fill-rule:nonzero;stroke:none"
             id="path616" /></g><g
           id="g618"
           transform="translate(244.1646,247.0937)"><path
             d="m 0,0 c -0.93,0 -1.852,0.152 -2.745,0.458 -5.068,1.74 -7.526,8.011 -5.478,13.981 0.978,2.852 2.831,5.224 5.218,6.678 2.462,1.498 5.193,1.851 7.69,0.996 1.269,-0.436 2.396,-1.156 3.35,-2.142 l -1.8,-1.742 C 5.559,18.926 4.763,19.435 3.871,19.741 2.092,20.354 0.112,20.08 -1.701,18.976 -3.589,17.826 -5.063,15.925 -5.853,13.626 -7.452,8.964 -5.693,4.12 -1.931,2.83 -0.152,2.218 1.828,2.49 3.641,3.595 c 1.888,1.15 3.362,3.051 4.151,5.349 0.301,0.879 0.49,1.781 0.56,2.683 l 2.499,-0.196 C 10.764,10.32 10.533,9.21 10.163,8.131 9.185,5.28 7.332,2.908 4.945,1.454 3.364,0.491 1.67,0 0,0"
             style="fill:#ffd75b;fill-opacity:1;fill-rule:nonzero;stroke:none"
             id="path620" /></g><g
           id="g622"
           transform="translate(213.9741,306.0684)"><path
             d="m 0,0 c 0,-6.67 -5.407,-12.077 -12.077,-12.077 -6.669,0 -12.076,5.407 -12.076,12.077 0,6.669 5.407,12.077 12.076,12.077 C -5.407,12.077 0,6.669 0,0"
             style="fill:#ffffff;fill-opacity:1;fill-rule:nonzero;stroke:none"
             id="path624" /></g><g
           id="g626"
           transform="translate(211.2788,306.0684)"><path
             d="m 0,0 c 0,-5.181 -4.2,-9.381 -9.381,-9.381 -5.181,0 -9.381,4.2 -9.381,9.381 0,5.181 4.2,9.381 9.381,9.381 C -4.2,9.381 0,5.181 0,0"
             style="fill:#b4b8d3;fill-opacity:1;fill-rule:nonzero;stroke:none"
             id="path628" /></g><g
           id="g630"
           transform="translate(200.957,301.4756)"><path
             d="m 0,0 c -0.154,0 -0.311,0.045 -0.446,0.141 l -3.561,2.473 c -0.356,0.246 -0.444,0.735 -0.197,1.09 0.247,0.355 0.736,0.442 1.09,0.196 L -0.187,1.868 4.805,8.857 C 5.056,9.21 5.544,9.292 5.897,9.04 6.25,8.788 6.331,8.298 6.08,7.947 L 0.638,0.328 C 0.485,0.115 0.245,0 0,0"
             style="fill:#ffffff;fill-opacity:1;fill-rule:nonzero;stroke:none"
             id="path632" /></g><g
           id="g634"
           transform="translate(414.5273,306.0684)"><path
             d="m 0,0 c 0,-6.67 -5.407,-12.077 -12.076,-12.077 -6.67,0 -12.077,5.407 -12.077,12.077 0,6.669 5.407,12.077 12.077,12.077 C -5.407,12.077 0,6.669 0,0"
             style="fill:#ffffff;fill-opacity:1;fill-rule:nonzero;stroke:none"
             id="path636" /></g><g
           id="g638"
           transform="translate(411.8174,305.5552)"><path
             d="m 0,0 c -0.283,-5.173 -4.706,-9.137 -9.88,-8.854 -5.173,0.284 -9.137,4.707 -8.853,9.88 0.283,5.173 4.707,9.137 9.879,8.854 C -3.681,9.597 0.283,5.173 0,0"
             style="fill:#b4b8d3;fill-opacity:1;fill-rule:nonzero;stroke:none"
             id="path640" /></g><g
           id="g642"
           transform="translate(406.4082,301.3276)"><path
             d="m 0,0 c -0.201,0 -0.401,0.077 -0.555,0.229 l -7.914,7.915 c -0.304,0.306 -0.304,0.802 0,1.108 0.306,0.306 0.803,0.306 1.109,0 L 0.555,1.337 C 0.859,1.031 0.859,0.536 0.555,0.229 0.401,0.077 0.201,0 0,0"
             style="fill:#ffffff;fill-opacity:1;fill-rule:nonzero;stroke:none"
             id="path644" /></g><g
           id="g646"
           transform="translate(398.4932,301.3276)"><path
             d="m 0,0 c -0.2,0 -0.401,0.077 -0.554,0.229 -0.304,0.307 -0.304,0.802 0,1.108 L 7.36,9.252 c 0.307,0.306 0.803,0.306 1.11,0 0.304,-0.306 0.304,-0.802 0,-1.108 L 0.555,0.229 C 0.401,0.077 0.201,0 0,0"
             style="fill:#ffffff;fill-opacity:1;fill-rule:nonzero;stroke:none"
             id="path648" /></g></g></g></g></svg>
